
<svg width="100%" height="100%" viewBox="0 0 498 96" version="1.1" xmlns="http://www.w3.org/2000/svg" xmlns:xlink="http://www.w3.org/1999/xlink">
  <title>Trucking Kit</title>
  <g class="icon">
      <path d="M109.071672,73.3 L101.571672,65.8 L82.8716716,84.5 L90.3716716,92 C95.5716716,97.2 103.871672,97.2 109.071672,92 C114.271672,86.8 114.171672,78.5 109.071672,73.3 Z" class="k-leg" fill="#FFFFFF"></path>
      <path d="M105.271672,35.7 L105.271672,35.7 C100.071672,30.5 91.7716716,30.5 86.5716716,35.7 C86.5716716,35.7 86.5716716,35.7 86.5716716,35.7 L71.1716716,51.1 L71.1716716,26.4 L81.7716716,26.4 C89.0716716,26.4 94.9716716,20.5 94.9716716,13.2 C95.0716716,5.9 89.0716716,0 81.7716716,0 C81.7716716,0 41.7716716,0 41.3716716,0.1 L30.1716716,0.1 C22.8716716,0 16.8716716,5.9 16.8716716,13.1 C16.8716716,20.3 22.6716716,26.4 29.9716716,26.5 C30.0716716,26.5 30.1716716,26.5 30.1716716,26.5 L39.4716716,26.5 L39.4716716,26.4 L44.7716716,26.4 L44.7716716,82.4 C44.8716716,89.9 50.9716716,95.8 58.4716716,95.7 C61.8716716,95.7 65.1716716,94.3 67.6716716,91.9 L105.271672,54.3 C110.371672,49.2 110.371672,40.9 105.271672,35.7 C105.271672,35.7 105.271672,35.7 105.271672,35.7 Z" class="tk" fill="#FFFFFF"></path>
      <path d="M39.6016716,56.4 L21.9016716,56.4 C16.5016716,56.4 12.2016716,60.7 12.2016716,66.1 C12.2016716,71.5 16.5016716,75.8 21.9016716,75.8 C21.9016716,75.8 21.9016716,75.8 21.9016716,75.8 L39.5016716,75.8 L39.5016716,56.4 L39.6016716,56.4 Z" class="small-bar" fill="#FEB940"></path>
      <path d="M39.6016716,32.4 L9.80167164,32.4 C4.50167164,32.3 0.101671638,36.6 0.00167163816,42 C-0.0983283618,47.4 4.30167164,51.8 9.60167164,51.8 C9.70167164,51.8 9.70167164,51.8 9.80167164,51.8 L39.6016716,51.8 L39.6016716,32.4 Z" class="large-bar" fill="#FEB940"></path>
  </g>
  <g class="text" transform="translate(132.000000, 17.000000)">
      <path d="M30.4914005,0 L334.5086,0 C351.291681,0 365,13.5840336 365,30.5 L365,30.5 C365,47.2878151 351.419796,61 334.5086,61 L30.4914005,61 C13.5802036,60.8718487 0,47.2878151 0,30.5 L0,30.5 C0,13.5840336 13.5802036,0 30.4914005,0 Z" class="text-container" fill="#FFFFFF"></path>
      <path d="M295.789296,22.3449477 C293.597206,20.1533101 289.986704,20.1533101 287.794614,22.3449477 L281.34729,28.9198606 L281.34729,22.3449477 L281.34729,22.3449477 L281.34729,16.543554 C281.34729,13.4494774 278.768361,11 275.673645,11 C272.449983,11 270,13.4494774 270,16.543554 L270,22.3449477 L270,22.3449477 L270,42.3275261 C270,45.5505226 272.707876,48 275.802592,48 C277.221003,48 278.639414,47.3554007 279.670986,46.3240418 L295.789296,30.3379791 C298.239279,28.4041812 298.755065,25.1811847 296.820868,22.7317073 C296.562975,22.4738676 296.305082,22.2160279 295.789296,22.3449477 Z" class="k" fill="#FEB940"></path>
      <path d="M286,42.7936118 L289.542579,46.3710074 C291.693431,48.5429975 295.23601,48.5429975 297.386861,46.3710074 C299.537713,44.1990172 299.537713,40.7493857 297.386861,38.5773956 L293.844282,35 L286,42.7936118 Z" class="k-leg" fill="#FEB940"></path>
      <path d="M302,36.9130435 L302,36.9130435 L302,42.5217391 C302,45.5217391 304.488095,48 307.5,48 C310.511905,48 313,45.5217391 313,42.5217391 L313,40.4347826 L313,40.4347826 L313,27 L302,27 L302,36.9130435 Z" class="i-body" fill="#FEB940"></path>
      <path d="M313,19.3014054 C312.744186,16.123891 310.186047,13.8731517 307.116279,14.0055481 C304.174419,14.270341 302,16.7858732 302,19.6985946 L302,19.6985946 C302.255814,22.876109 304.813953,25.1268483 307.883721,24.9944519 C310.825581,24.8620554 313,22.3465233 313,19.3014054 L313,19.3014054 Z" class="i-dot" fill="#FEB940"></path>
      <path d="M337.670032,23.2539926 L334.754152,23.2539926 L334.754152,23.2539926 L334.754152,23.2539926 L334.754152,19.8276224 C334.627374,17.0357651 332.218604,14.8784209 329.429502,15.0053235 C326.767177,15.1322261 324.738739,17.2895703 324.611961,19.8276224 L324.611961,23.2539926 L324.611961,23.2539926 L324.611961,23.2539926 L321.822859,23.2539926 C319.033756,23.3808952 316.878541,25.7920447 317.005318,28.5839019 C317.132096,31.2488566 319.287311,33.2792982 321.822859,33.4062008 L324.485184,33.4062008 L324.485184,39.4975257 L324.485184,39.4975257 L324.485184,42.9238959 C324.485184,45.7157532 326.767177,48 329.556279,48 C332.345382,48 334.627374,45.7157532 334.627374,42.9238959 L334.627374,39.4975257 L334.627374,39.4975257 L334.627374,33.2792982 L337.670032,33.2792982 C340.459134,33.4062008 342.867904,31.2488566 342.994682,28.4569993 C343.121459,25.6651421 340.966244,23.2539926 338.177141,23.12709 C338.050364,23.12709 337.796809,23.12709 337.670032,23.2539926 L337.670032,23.2539926 Z" class="t" fill="#FEB940"></path>
      <polygon class="T" fill="#1C4F68" points="28.6197183 23.4415584 20 23.4415584 20 15 47 15 47 23.4415584 38.5070423 23.4415584 38.5070423 45 28.6197183 45"></polygon>
      <path d="M50,15 L64.5644444,15 C69.8488889,15 73.2,16.2931034 75.2622222,18.362069 C77.0666667,20.1724138 77.9688889,22.3706897 77.9688889,25.4741379 L77.9688889,25.6034483 C77.9688889,30 75.7777778,32.9741379 72.04,34.7844828 L79,45 L67.6577778,45 L61.9866667,36.4655172 L59.9244444,36.4655172 L59.9244444,44.8706897 L50,44.8706897 L50,15 Z M64.3066667,29.2241379 C66.6266667,29.2241379 68.1733333,28.1896552 68.1733333,26.3793103 L68.1733333,26.25 C68.1733333,24.3103448 66.6266667,23.4051724 64.4355556,23.4051724 L59.9244444,23.4051724 L59.9244444,29.2241379 L64.3066667,29.2241379 L64.3066667,29.2241379 Z" class="R" fill="#1C4F68"></path>
      <path d="M81,32.1440678 L81,16 L90.9608696,16 L90.9608696,32.0169492 C90.9608696,35.7033898 92.8521739,37.2288136 95.5,37.2288136 C98.1478261,37.2288136 100.03913,35.8305085 100.03913,32.2711864 L100.03913,16 L110,16 L110,32.0169492 C110,42.059322 104.2,46 95.5,46 C86.673913,46 81,41.9322034 81,32.1440678 Z" class="U" fill="#1C4F68"></path>
      <path d="M114,30.6281682 L114,30.6281682 C114,21.5870792 120.808696,15 129.508696,15 C135.93913,15 140.226087,18.2289604 142.747826,22.7495049 L134.678261,27.5283663 C133.543478,25.3326732 132.030435,23.9119306 129.382609,23.9119306 C126.104348,23.9119306 123.96087,26.8825742 123.96087,30.3698514 L123.96087,30.4990098 C123.96087,34.3737623 126.230435,37.086089 129.382609,37.086089 C132.156522,37.086089 133.669565,35.536188 134.930435,33.340495 L143,37.9901979 C140.604348,42.381584 136.443478,45.9980196 129.256522,45.9980196 C121.06087,46.1271781 114,39.9275741 114,30.6281682 Z" class="C" fill="#1C4F68"></path>
      <polygon class="K" fill="#1C4F68" points="146 15 155.871795 15 155.871795 26.1688312 164.333333 15 175.871795 15 165.487179 27.987013 176 45 164.205128 45 158.435897 35.5194805 155.871795 38.6363636 155.871795 45 146 45"></polygon>
      <polygon class="I" fill="#1C4F68" points="178 15 188 15 188 45 178 45"></polygon>
      <polygon class="N" fill="#1C4F68" points="193.12931 15 202.439655 15 213.043103 28.2467532 213.043103 15 223 15 223 45 214.077586 45 202.956897 31.1038961 202.956897 45 193 45 193 15"></polygon>
      <path d="M226,30.5643154 L226,30.5643154 C226,21.560166 233.012987,15 242.493506,15 C247.688312,15 251.844156,16.6721992 255.090909,19.5020747 L249.506494,26.1908714 C247.558442,24.5186722 245.350649,23.6182573 242.883117,23.6182573 C238.987013,23.6182573 236.12987,26.5767635 236.12987,30.5643154 L236.12987,30.6929461 C236.12987,34.9377593 239.116883,37.7676349 243.272727,37.7676349 C244.961039,37.7676349 245.87013,37.5103734 246.649351,37.1244813 L246.649351,34.1659751 L241.454545,34.1659751 L241.454545,27.7344398 L256,27.7344398 L256,41.4979253 C252.753247,44.0705394 248.207792,46 242.753247,46 C233.532468,46 226,39.8257261 226,30.5643154 Z" class="G" fill="#1C4F68"></path>
  </g>
</svg>
