<svg width="100%" height="100%" viewBox="0 0 114 96" version="1.1" xmlns="http://www.w3.org/2000/svg" xmlns:xlink="http://www.w3.org/1999/xlink">
  <title>Trucking Kit</title>
  <g class="icon">
      <path d="M109.071672,73.3 L101.571672,65.8 L82.8716716,84.5 L90.3716716,92 C95.5716716,97.2 103.871672,97.2 109.071672,92 C114.271672,86.8 114.171672,78.5 109.071672,73.3 Z" class="k-leg"></path>
      <path d="M105.271672,35.7 L105.271672,35.7 C100.071672,30.5 91.7716716,30.5 86.5716716,35.7 C86.5716716,35.7 86.5716716,35.7 86.5716716,35.7 L71.1716716,51.1 L71.1716716,26.4 L81.7716716,26.4 C89.0716716,26.4 94.9716716,20.5 94.9716716,13.2 C95.0716716,5.9 89.0716716,0 81.7716716,0 C81.7716716,0 41.7716716,0 41.3716716,0.1 L30.1716716,0.1 C22.8716716,0 16.8716716,5.9 16.8716716,13.1 C16.8716716,20.3 22.6716716,26.4 29.9716716,26.5 C30.0716716,26.5 30.1716716,26.5 30.1716716,26.5 L39.4716716,26.5 L39.4716716,26.4 L44.7716716,26.4 L44.7716716,82.4 C44.8716716,89.9 50.9716716,95.8 58.4716716,95.7 C61.8716716,95.7 65.1716716,94.3 67.6716716,91.9 L105.271672,54.3 C110.371672,49.2 110.371672,40.9 105.271672,35.7 C105.271672,35.7 105.271672,35.7 105.271672,35.7 Z" class="tk"></path>
      <path d="M39.6016716,56.4 L21.9016716,56.4 C16.5016716,56.4 12.2016716,60.7 12.2016716,66.1 C12.2016716,71.5 16.5016716,75.8 21.9016716,75.8 C21.9016716,75.8 21.9016716,75.8 21.9016716,75.8 L39.5016716,75.8 L39.5016716,56.4 L39.6016716,56.4 Z" class="small-bar"></path>
      <path d="M39.6016716,32.4 L9.80167164,32.4 C4.50167164,32.3 0.101671638,36.6 0.00167163816,42 C-0.0983283618,47.4 4.30167164,51.8 9.60167164,51.8 C9.70167164,51.8 9.70167164,51.8 9.80167164,51.8 L39.6016716,51.8 L39.6016716,32.4 Z" class="large-bar"></path>
  </g>
</svg>
