<svg width="100%" height="100%" viewBox="0 0 285 163" version="1.1" xmlns="http://www.w3.org/2000/svg" xmlns:xlink="http://www.w3.org/1999/xlink">
  <title>Trucking Kit</title>
  <g class="icon" transform="translate(75.898328, 0.000000)">
      <path d="M109.071672,73.3 L101.571672,65.8 L82.8716716,84.5 L90.3716716,92 C95.5716716,97.2 103.871672,97.2 109.071672,92 C114.271672,86.8 114.171672,78.5 109.071672,73.3 Z" class="k-leg" ></path>
      <path d="M105.271672,35.7 L105.271672,35.7 C100.071672,30.5 91.7716716,30.5 86.5716716,35.7 C86.5716716,35.7 86.5716716,35.7 86.5716716,35.7 L71.1716716,51.1 L71.1716716,26.4 L81.7716716,26.4 C89.0716716,26.4 94.9716716,20.5 94.9716716,13.2 C95.0716716,5.9 89.0716716,0 81.7716716,0 C81.7716716,0 41.7716716,0 41.3716716,0.1 L30.1716716,0.1 C22.8716716,0 16.8716716,5.9 16.8716716,13.1 C16.8716716,20.3 22.6716716,26.4 29.9716716,26.5 C30.0716716,26.5 30.1716716,26.5 30.1716716,26.5 L39.4716716,26.5 L39.4716716,26.4 L44.7716716,26.4 L44.7716716,82.4 C44.8716716,89.9 50.9716716,95.8 58.4716716,95.7 C61.8716716,95.7 65.1716716,94.3 67.6716716,91.9 L105.271672,54.3 C110.371672,49.2 110.371672,40.9 105.271672,35.7 C105.271672,35.7 105.271672,35.7 105.271672,35.7 Z" class="tk" ></path>
      <path d="M39.6016716,56.4 L21.9016716,56.4 C16.5016716,56.4 12.2016716,60.7 12.2016716,66.1 C12.2016716,71.5 16.5016716,75.8 21.9016716,75.8 C21.9016716,75.8 21.9016716,75.8 21.9016716,75.8 L39.5016716,75.8 L39.5016716,56.4 L39.6016716,56.4 Z" class="small-bar" ></path>
      <path d="M39.6016716,32.4 L9.80167164,32.4 C4.50167164,32.3 0.101671638,36.6 0.00167163816,42 C-0.0983283618,47.4 4.30167164,51.8 9.60167164,51.8 C9.70167164,51.8 9.70167164,51.8 9.80167164,51.8 L39.6016716,51.8 L39.6016716,32.4 Z" class="large-bar" ></path>
  </g>
  <g class="text" transform="translate(0.000000, 115.100000)">
      <path d="M23.8,0 L261.1,0 C274.2,0 284.9,10.6 284.9,23.8 L284.9,23.8 C284.9,36.9 274.3,47.6 261.1,47.6 L23.8,47.6 C10.6,47.5 0,36.9 0,23.8 L0,23.8 C0,10.6 10.6,0 23.8,0 Z" class="text-container" ></path>
      <path d="M231.014,17.827 C229.314,16.127 226.514,16.127 224.814,17.827 L219.814,22.927 L219.814,17.827 L219.814,17.827 L219.814,13.327 C219.814,10.927 217.814,9.027 215.414,9.027 C212.914,9.027 211.014,10.927 211.014,13.327 L211.014,17.827 L211.014,17.827 L211.014,33.327 C211.014,35.827 213.114,37.727 215.514,37.727 C216.614,37.727 217.714,37.227 218.514,36.427 L231.014,24.027 C232.914,22.527 233.314,20.027 231.814,18.127 C231.614,17.927 231.414,17.727 231.014,17.827 Z" class="k" ></path>
      <path d="M223.014,33.927 L225.814,36.727 C227.514,38.427 230.314,38.427 232.014,36.727 C233.714,35.027 233.714,32.327 232.014,30.627 L229.214,27.827 L223.014,33.927 Z" class="k-leg" ></path>
      <path d="M236.114,29.227 L236.114,29.227 L236.114,33.527 C236.114,35.827 238.014,37.727 240.314,37.727 C242.614,37.727 244.514,35.827 244.514,33.527 L244.514,31.927 L244.514,31.927 L244.514,21.627 L236.114,21.627 L236.114,29.227 Z" class="i-body" ></path>
      <path d="M244.514,15.027 C244.314,12.627 242.314,10.927 239.914,11.027 C237.614,11.227 235.914,13.127 235.914,15.327 L235.914,15.327 C236.114,17.727 238.114,19.427 240.514,19.327 C242.814,19.227 244.514,17.327 244.514,15.027 L244.514,15.027 Z" class="i-dot" ></path>
      <path d="M263.414,18.127 L261.114,18.127 L261.114,18.127 L261.114,18.127 L261.114,15.427 C261.014,13.227 259.114,11.527 256.914,11.627 C254.814,11.727 253.214,13.427 253.114,15.427 L253.114,18.127 L253.114,18.127 L253.114,18.127 L250.914,18.127 C248.714,18.227 247.014,20.127 247.114,22.327 C247.214,24.427 248.914,26.027 250.914,26.127 L253.014,26.127 L253.014,30.927 L253.014,30.927 L253.014,33.627 C253.014,35.827 254.814,37.627 257.014,37.627 C259.214,37.627 261.014,35.827 261.014,33.627 L261.014,30.927 L261.014,30.927 L261.014,26.027 L263.414,26.027 C265.614,26.127 267.514,24.427 267.614,22.227 C267.714,20.027 266.014,18.127 263.814,18.027 C263.714,18.027 263.514,18.027 263.414,18.127 L263.414,18.127 Z" class="t" ></path>
      <polygon class="T" points="22.128 18.914 15.328 18.914 15.328 12.414 36.628 12.414 36.628 18.914 29.928 18.914 29.928 35.514 22.128 35.514" ></polygon>
      <path d="M39.228,12.414 L50.528,12.414 C54.628,12.414 57.228,13.414 58.828,15.014 C60.228,16.414 60.928,18.114 60.928,20.514 L60.928,20.614 C60.928,24.014 59.228,26.314 56.328,27.714 L61.728,35.614 L52.928,35.614 L48.528,29.014 L46.928,29.014 L46.928,35.514 L39.228,35.514 L39.228,12.414 Z M50.328,23.414 C52.128,23.414 53.328,22.614 53.328,21.214 L53.328,21.114 C53.328,19.614 52.128,18.914 50.428,18.914 L46.928,18.914 L46.928,23.414 L50.328,23.414 L50.328,23.414 Z" class="R" ></path>
      <path d="M63.428,25.114 L63.428,12.414 L71.328,12.414 L71.328,25.014 C71.328,27.914 72.828,29.114 74.928,29.114 C77.028,29.114 78.528,28.014 78.528,25.214 L78.528,12.414 L86.428,12.414 L86.428,25.014 C86.428,32.914 81.828,36.014 74.928,36.014 C67.928,36.014 63.428,32.814 63.428,25.114 Z" class="U" ></path>
      <path d="M89.028,24.014 L89.028,24.014 C89.028,17.014 94.428,11.914 101.328,11.914 C106.428,11.914 109.828,14.414 111.828,17.914 L105.428,21.614 C104.528,19.914 103.328,18.814 101.228,18.814 C98.628,18.814 96.928,21.114 96.928,23.814 L96.928,23.914 C96.928,26.914 98.728,29.014 101.228,29.014 C103.428,29.014 104.628,27.814 105.628,26.114 L112.028,29.714 C110.128,33.114 106.828,35.914 101.128,35.914 C94.628,36.014 89.028,31.214 89.028,24.014 Z" class="C" ></path>
      <polygon class="K" points="114.228 12.414 121.928 12.414 121.928 21.014 128.528 12.414 137.528 12.414 129.428 22.414 137.628 35.514 128.428 35.514 123.928 28.214 121.928 30.614 121.928 35.514 114.228 35.514"></polygon>
      <polygon class="I" points="139.228 12.414 146.928 12.414 146.928 35.514 139.228 35.514"></polygon>
      <polygon class="N" points="150.528 12.414 157.728 12.414 165.928 22.614 165.928 12.414 173.628 12.414 173.628 35.514 166.728 35.514 158.128 24.814 158.128 35.514 150.428 35.514 150.428 12.414"></polygon>
      <path d="M176.528,24.014 L176.528,24.014 C176.528,17.014 181.928,11.914 189.228,11.914 C193.228,11.914 196.428,13.214 198.928,15.414 L194.628,20.614 C193.128,19.314 191.428,18.614 189.528,18.614 C186.528,18.614 184.328,20.914 184.328,24.014 L184.328,24.114 C184.328,27.414 186.628,29.614 189.828,29.614 C191.128,29.614 191.828,29.414 192.428,29.114 L192.428,26.814 L188.428,26.814 L188.428,21.814 L199.628,21.814 L199.628,32.514 C197.128,34.514 193.628,36.014 189.428,36.014 C182.328,36.014 176.528,31.214 176.528,24.014 Z" class="G" ></path>
  </g>
</svg>
