<?xml version="1.0" standalone="no"?>
<!DOCTYPE svg PUBLIC "-//W3C//DTD SVG 20010904//EN"
 "http://www.w3.org/TR/2001/REC-SVG-20010904/DTD/svg10.dtd">
<svg version="1.0" xmlns="http://www.w3.org/2000/svg"
 width="1008.000000pt" height="1008.000000pt" viewBox="0 0 1008.000000 1008.000000"
 preserveAspectRatio="xMidYMid meet">
<metadata>
Created by potrace 1.14, written by Peter Selinger 2001-2017
</metadata>
<g transform="translate(0.000000,1008.000000) scale(0.100000,-0.100000)"
fill="#000000" stroke="none">
<path d="M2525 9302 c-48 -6 -106 -17 -129 -24 -23 -6 -45 -12 -51 -13 -5 -1
-23 -7 -40 -13 -16 -7 -33 -12 -38 -12 -20 1 -226 -116 -291 -164 -121 -92
-250 -240 -317 -366 -13 -25 -27 -46 -31 -48 -5 -2 -8 -12 -8 -23 0 -10 -4
-19 -8 -19 -5 0 -9 -6 -10 -12 0 -7 -14 -51 -30 -98 -27 -77 -44 -151 -58
-250 -5 -40 -5 -210 1 -255 7 -63 17 -112 36 -180 11 -38 21 -78 24 -87 5 -22
95 -211 104 -218 3 -3 12 -17 20 -32 8 -16 18 -28 23 -28 4 0 8 -6 8 -14 0
-24 220 -239 295 -288 95 -63 217 -124 238 -120 4 1 7 -3 7 -10 0 -6 3 -9 6
-5 4 3 19 0 35 -9 16 -8 29 -12 29 -9 0 3 8 1 18 -4 9 -5 31 -11 47 -14 17 -3
41 -8 54 -11 80 -18 206 -21 834 -20 383 1 698 -1 698 -5 1 -3 2 -1144 4
-2536 1 -1392 5 -2557 9 -2590 9 -72 32 -173 52 -235 19 -57 57 -153 64 -160
3 -3 16 -25 29 -50 65 -119 206 -290 288 -346 24 -16 43 -32 43 -36 0 -5 5 -8
10 -8 6 0 20 -8 31 -18 10 -11 32 -25 47 -33 15 -7 50 -27 77 -43 28 -15 55
-29 60 -30 6 -1 19 -7 30 -13 22 -12 176 -60 215 -67 14 -2 41 -7 60 -10 30
-6 135 -17 165 -17 106 -3 314 28 383 56 17 8 32 12 32 10 0 -6 135 52 188 82
152 84 176 107 1942 1873 960 960 1759 1766 1775 1790 17 25 33 46 37 48 7 3
91 149 94 162 0 3 10 25 21 50 33 75 59 163 81 275 3 17 6 58 6 92 1 35 4 63
8 63 3 0 5 12 3 28 -2 15 -6 61 -9 102 -6 77 -10 106 -27 175 -15 61 -17 70
-19 73 -2 1 -3 5 -4 10 -7 30 -47 129 -65 163 -5 8 -21 38 -36 67 -14 28 -33
56 -41 63 -8 6 -14 17 -14 23 0 6 -15 28 -33 50 -42 51 -185 196 -193 196 -3
0 -24 15 -47 34 -138 110 -360 197 -572 222 -39 5 -201 4 -240 0 -171 -20
-306 -63 -445 -138 -90 -49 -232 -152 -223 -161 3 -4 2 -7 -4 -7 -6 0 -326
-315 -711 -700 -385 -386 -702 -697 -704 -693 -2 4 -4 499 -4 1098 l1 1090
395 2 c414 3 457 3 555 3 65 -1 140 5 195 16 19 3 46 8 60 11 45 8 235 75 238
84 2 5 12 9 23 9 10 0 19 5 19 10 0 6 7 10 14 10 8 0 37 14 63 32 147 96 249
191 339 313 57 78 154 259 154 287 0 8 3 18 7 22 4 3 8 12 9 19 1 7 9 39 18
72 17 67 28 123 28 145 1 8 5 20 10 27 5 7 5 14 -1 17 -5 4 -6 19 -3 34 15 58
1 228 -29 347 -25 103 -39 141 -88 245 -28 60 -85 155 -101 170 -3 3 -18 23
-35 45 -64 86 -267 265 -301 265 -7 0 -14 4 -16 9 -4 12 -144 81 -163 81 -8 0
-15 4 -15 8 0 10 -141 49 -240 67 -106 19 -4831 17 -4965 -3z"/>
<path d="M747 6423 c-1 -1 -22 -4 -46 -8 -23 -3 -54 -10 -67 -15 -13 -5 -24
-8 -24 -6 0 7 -111 -34 -164 -61 -199 -101 -356 -276 -430 -483 -14 -38 -16
-85 -14 -305 2 -143 5 -266 8 -274 13 -36 94 -190 120 -226 37 -53 126 -144
170 -175 19 -13 37 -27 40 -30 16 -17 180 -102 180 -92 0 3 5 1 12 -6 7 -7 22
-12 34 -12 13 0 25 -4 29 -9 3 -6 13 -10 23 -10 9 0 40 -5 67 -11 36 -9 430
-12 1430 -12 759 0 1387 1 1396 1 14 1 16 85 15 868 l-1 868 -1388 0 c-764 0
-1389 -1 -1390 -2z"/>
<path d="M2030 4282 c0 -4 -33 -7 -73 -7 -93 -1 -148 -10 -247 -40 -56 -17
-196 -91 -244 -129 -109 -85 -209 -209 -264 -326 -50 -106 -72 -201 -84 -365
-1 -5 2 -41 6 -80 4 -38 8 -81 9 -95 1 -14 5 -27 9 -30 3 -3 8 -18 11 -35 3
-16 11 -43 18 -60 7 -16 13 -32 14 -35 27 -94 148 -255 260 -346 51 -41 166
-114 188 -118 7 -2 24 -8 39 -14 25 -10 100 -33 159 -49 13 -3 400 -7 860 -9
l836 -2 0 870 0 869 -76 -1 c-146 -1 -166 -2 -191 -4 -14 -1 -33 1 -42 6 -9 4
-19 4 -22 -1 -3 -4 -23 -5 -43 -2 -21 4 -54 4 -73 1 -19 -3 -49 -3 -65 1 -17
3 -39 3 -50 -1 -10 -4 -35 -4 -54 -1 -20 4 -52 4 -71 1 -19 -3 -49 -3 -65 1
-17 3 -39 3 -50 -1 -10 -4 -35 -4 -54 -1 -20 4 -52 4 -71 1 -19 -3 -49 -3 -65
1 -17 3 -39 3 -50 -1 -10 -4 -35 -4 -54 -1 -20 4 -52 4 -71 1 -19 -3 -49 -3
-65 1 -17 3 -39 3 -50 -1 -10 -4 -35 -4 -54 -1 -20 4 -52 4 -71 1 -19 -3 -47
-3 -62 1 -16 4 -28 5 -28 1z"/>
<path d="M8232 2596 l-833 -833 361 -362 c334 -333 461 -451 489 -451 6 0 11
-4 11 -8 0 -12 193 -106 265 -130 140 -46 216 -57 385 -56 125 1 164 5 230 19
14 4 36 8 50 11 23 4 46 11 95 30 11 4 26 8 33 10 26 5 189 89 237 122 70 49
153 119 198 169 72 79 97 108 97 114 0 3 11 19 25 35 30 35 116 207 144 289
20 60 33 115 35 148 0 9 3 17 6 17 14 0 20 291 8 385 -12 90 -56 232 -102 327
-43 89 -75 147 -86 158 -3 3 -17 21 -30 40 -14 19 -34 46 -45 59 -24 29 -704
711 -726 728 -12 10 -147 -121 -847 -821z"/>
</g>
</svg>
