<svg id="Logo" xmlns="http://www.w3.org/2000/svg" width="62.64" height="53.237" viewBox="0 0 62.64 53.237">
  <g id="Group_65" data-name="Group 65" transform="translate(9.369)">
    <path id="Path_109" data-name="Path 109" d="M324.638,1942.267h0a7.333,7.333,0,0,0-10.37,0l-8.526,8.526v-13.7h5.889a7.333,7.333,0,1,0,0-14.666s-22.217.011-22.427.029h-6.252a7.336,7.336,0,0,0,0,14.673h5.19v-.036h2.934V1968.2a7.494,7.494,0,0,0,12.7,5.3l20.862-20.862A7.333,7.333,0,0,0,324.638,1942.267Z" transform="translate(-275.615 -1922.427)" fill="#fff"/>
    <path id="Path_110" data-name="Path 110" d="M610.132,2246.279l-4.141-4.141-10.371,10.37,4.141,4.142a7.333,7.333,0,0,0,10.371-10.371Z" transform="translate(-559.009 -2205.561)" fill="#fff"/>
  </g>
  <path id="Path_111" data-name="Path 111" d="M215.641,2079.647H199.119a5.4,5.4,0,1,0,0,10.791h16.522Z" transform="translate(-193.724 -2061.66)" fill="#1c4f68"/>
  <path id="Path_112" data-name="Path 112" d="M267.784,2196.126H258a5.4,5.4,0,0,0,0,10.791h9.786Z" transform="translate(-245.867 -2164.813)" fill="#1c4f68"/>
</svg>
