<?xml version="1.0" encoding="utf-8"?>
<!-- Generator: Adobe Illustrator 25.4.1, SVG Export Plug-In . SVG Version: 6.00 Build 0)  -->
<svg version="1.1" id="Layer_1" xmlns="http://www.w3.org/2000/svg" xmlns:xlink="http://www.w3.org/1999/xlink" x="0px" y="0px"
	 viewBox="0 0 284.8 162.6" style="enable-background:new 0 0 284.8 162.6;" xml:space="preserve">
<style type="text/css">
	.st0{fill:#FFFFFF;}
	.st1{fill:#FEB940;}
	.st2{enable-background:new    ;}
	.st3{fill:#1C4F68;}
</style>
<g id="Group_77" transform="translate(-702 -3913.709)">
	<g id="Logo_white" transform="translate(778 3913.709)">
		<g id="Group_62" transform="translate(16.87)">
			<path id="Path_105" class="st0" d="M88.3,35.7L88.3,35.7c-5.2-5.2-13.5-5.2-18.7,0c0,0,0,0,0,0L54.2,51.1V26.4h10.6
				c7.3,0,13.2-5.9,13.2-13.2C78.1,5.9,72.1,0,64.8,0c0,0-40,0-40.4,0.1H13.2C5.9,0-0.1,5.9-0.1,13.1S5.7,26.4,13,26.5
				c0.1,0,0.2,0,0.2,0h9.3v-0.1h5.3v56c0.1,7.5,6.2,13.4,13.7,13.3c3.4,0,6.7-1.4,9.2-3.8l37.6-37.6C93.4,49.2,93.4,40.9,88.3,35.7
				C88.3,35.7,88.3,35.7,88.3,35.7z"/>
			<path id="Path_106" class="st0" d="M92.1,73.3l-7.5-7.5L65.9,84.5l7.5,7.5c5.2,5.2,13.5,5.2,18.7,0S97.2,78.5,92.1,73.3z"/>
		</g>
		<path id="Path_107" class="st1" d="M39.5,32.4H9.7C4.4,32.3,0,36.6-0.1,42c-0.1,5.4,4.3,9.8,9.6,9.8c0.1,0,0.1,0,0.2,0h29.8V32.4z
			"/>
		<path id="Path_108" class="st1" d="M39.5,56.4H21.8c-5.4,0-9.7,4.3-9.7,9.7c0,5.4,4.3,9.7,9.7,9.7c0,0,0,0,0,0h17.6V56.4z"/>
	</g>
	<g id="Group_75" transform="translate(702 4028.809)">
		<path id="Rectangle_2" class="st0" d="M23.8,0h237.3c13.1,0,23.8,10.6,23.8,23.8v0c0,13.1-10.6,23.8-23.8,23.8H23.8
			C10.6,47.5,0,36.9,0,23.8v0C0,10.6,10.6,0,23.8,0z"/>
		<g id="Group_8" transform="translate(14.928 8.927)">
			<g id="Group_5" transform="translate(0 0.587)">
				<g class="st2">
					<path class="st3" d="M7.2,9.4H0.4V2.9h21.3v6.5H15V26H7.2V9.4z"/>
					<path class="st3" d="M24.3,2.9h11.3c4.1,0,6.7,1,8.3,2.6C45.3,6.9,46,8.6,46,11v0.1c0,3.4-1.7,5.7-4.6,7.1l5.4,7.9h-8.8
						l-4.4-6.6H32V26h-7.7V2.9z M35.4,13.9c1.8,0,3-0.8,3-2.2v-0.1c0-1.5-1.2-2.2-2.9-2.2H32v4.5H35.4z"/>
					<path class="st3" d="M48.5,15.6V2.9h7.9v12.6c0,2.9,1.5,4.1,3.6,4.1s3.6-1.1,3.6-3.9V2.9h7.9v12.6c0,7.9-4.6,11-11.5,11
						C53,26.5,48.5,23.3,48.5,15.6z"/>
					<path class="st3" d="M74.1,14.5L74.1,14.5c0-7,5.4-12.1,12.3-12.1c5.1,0,8.5,2.5,10.5,6l-6.4,3.7c-0.9-1.7-2.1-2.8-4.2-2.8
						c-2.6,0-4.3,2.3-4.3,5v0.1c0,3,1.8,5.1,4.3,5.1c2.2,0,3.4-1.2,4.4-2.9l6.4,3.6c-1.9,3.4-5.2,6.2-10.9,6.2
						C79.7,26.5,74.1,21.7,74.1,14.5z"/>
					<path class="st3" d="M99.3,2.9h7.7v8.6l6.6-8.6h9l-8.1,10l8.2,13.1h-9.2l-4.5-7.3l-2,2.4V26h-7.7V2.9z"/>
					<path class="st3" d="M124.3,2.9h7.7V26h-7.7V2.9z"/>
					<path class="st3" d="M135.6,2.9h7.2l8.2,10.2V2.9h7.7V26h-6.9l-8.6-10.7V26h-7.7V2.9z"/>
					<path class="st3" d="M161.6,14.5L161.6,14.5c0-7,5.4-12.1,12.7-12.1c4,0,7.2,1.3,9.7,3.5l-4.3,5.2c-1.5-1.3-3.2-2-5.1-2
						c-3,0-5.2,2.3-5.2,5.4v0.1c0,3.3,2.3,5.5,5.5,5.5c1.3,0,2-0.2,2.6-0.5v-2.3h-4v-5h11.2V23c-2.5,2-6,3.5-10.2,3.5
						C167.4,26.5,161.6,21.7,161.6,14.5z"/>
				</g>
			</g>
			<g id="Group_7" transform="translate(196.086 0)">
				<g id="Group_6">
					<g id="Path_9">
						<path class="st1" d="M20,8.9c-1.7-1.7-4.5-1.7-6.2,0L8.8,14V8.9h0V4.4c0-2.4-2-4.3-4.4-4.3C1.9,0.1,0,2,0,4.4v4.5h0v15.5
							c0,2.5,2.1,4.4,4.5,4.4c1.1,0,2.2-0.5,3-1.3L20,15.1c1.9-1.5,2.3-4,0.8-5.9C20.6,9,20.4,8.8,20,8.9z"/>
					</g>
					<g id="Path_10">
						<path class="st1" d="M12,25l2.8,2.8c1.7,1.7,4.5,1.7,6.2,0c1.7-1.7,1.7-4.4,0-6.1l-2.8-2.8L12,25z"/>
					</g>
				</g>
				<g id="Path_11">
					<path class="st1" d="M25.1,20.3L25.1,20.3v4.3c0,2.3,1.9,4.2,4.2,4.2c2.3,0,4.2-1.9,4.2-4.2l0-1.6h0V12.7h-8.4V20.3z"/>
				</g>
				<g id="Path_12">
					<path class="st1" d="M33.5,6.1c-0.2-2.4-2.2-4.1-4.6-4c-2.3,0.2-4,2.1-4,4.3h0c0.2,2.4,2.2,4.1,4.6,4
						C31.8,10.3,33.5,8.4,33.5,6.1L33.5,6.1z"/>
				</g>
				<g id="Path_13">
					<path class="st1" d="M52.4,9.2l-2.3,0v0h0l0-2.7c-0.1-2.2-2-3.9-4.2-3.8c-2.1,0.1-3.7,1.8-3.8,3.8l0,2.7l0,0l0,0l-2.2,0
						c-2.2,0.1-3.9,2-3.8,4.2c0.1,2.1,1.8,3.7,3.8,3.8l2.1,0V22h0l0,2.7c0,2.2,1.8,4,4,4s4-1.8,4-4l0-2.7h0v-4.9l2.4,0
						c2.2,0.1,4.1-1.6,4.2-3.8c0.1-2.2-1.6-4.1-3.8-4.2C52.7,9.1,52.5,9.1,52.4,9.2L52.4,9.2z"/>
				</g>
			</g>
		</g>
	</g>
</g>
</svg>
